<svg xmlns="http://www.w3.org/2000/svg" width="1639" height="956" viewBox="0 0 1639 956" version="1.1"><path d="" stroke="none" fill="#c00434" fill-rule="evenodd"/><path d="M 24 248 L 24 491 74.500 491 L 125 491 125 380.500 L 125 270 221 270 L 317 270 317 380.500 L 317 491 367 491 L 417 491 417 460.934 L 417 430.869 422.914 439.684 C 452.143 483.252, 497.714 506, 555.763 506 C 618.786 506, 673.183 478.598, 704.072 431.292 L 708.778 424.083 713.291 431.850 C 741.398 480.224, 790.915 506, 855.737 506 C 912.893 506, 959.144 483.159, 987.331 441.013 L 991 435.527 991 463.263 L 991 491 1038 491 L 1085 491 1085 431.698 L 1085 372.397 1103.189 352.597 C 1118.036 336.434, 1121.573 333.073, 1122.439 334.303 C 1123.023 335.131, 1142.400 370.725, 1165.500 413.399 L 1207.500 490.988 1262.357 490.994 C 1311.868 490.999, 1317.155 490.847, 1316.610 489.425 C 1316.277 488.559, 1312.117 481.247, 1307.365 473.175 C 1302.614 465.104, 1298.605 458.275, 1298.458 458 C 1298.311 457.725, 1301.466 460.650, 1305.469 464.500 C 1338.231 496.007, 1387.510 510.735, 1440.789 504.945 C 1500.705 498.433, 1551.166 464.570, 1575.566 414.500 C 1579.472 406.484, 1585 392.026, 1585 389.825 C 1585 389.371, 1564.188 389.025, 1538.750 389.056 L 1492.500 389.113 1489.300 395.806 C 1481.072 413.016, 1464.225 426.180, 1443.500 431.593 C 1433.650 434.165, 1410.136 434.197, 1401 431.650 C 1386.541 427.619, 1373.609 419.334, 1365.177 408.700 C 1354.163 394.811, 1349.863 380.330, 1348.156 351.382 L 1347.485 340 1468.371 340 L 1589.257 340 1588.695 314.750 C 1587.168 246.156, 1571.623 203.050, 1536.002 168.636 C 1501.775 135.569, 1453.361 119.837, 1401.856 125.048 C 1379.422 127.317, 1363.525 131.731, 1344.500 140.971 C 1328.607 148.691, 1317.188 157.002, 1304.744 169.906 C 1281.251 194.268, 1266.662 223.653, 1259.020 262 C 1254.880 282.772, 1253.615 296.622, 1253.676 320.500 C 1253.749 349.188, 1256.785 371.837, 1263.457 393.461 C 1264.807 397.839, 1265.820 401.513, 1265.706 401.627 C 1265.250 402.082, 1186.629 267.167, 1186.883 266.364 C 1187.033 265.889, 1214.231 235.470, 1247.322 198.766 C 1280.414 162.063, 1307.641 131.576, 1307.828 131.016 C 1308.055 130.336, 1290.643 130, 1255.215 130 L 1202.263 130 1143.882 199.273 L 1085.500 268.546 1085.246 136.773 L 1084.993 5 1038.001 5 L 991.010 5 990.755 98.058 L 990.500 191.116 986.063 184.308 C 980.058 175.094, 961.342 156.579, 951.500 150.115 C 921.543 130.441, 883.006 121.596, 841.256 124.812 C 816.776 126.697, 799.547 130.819, 779.725 139.531 C 751.684 151.855, 724.680 177.842, 710.355 206.288 L 706.875 213.198 701.805 204.349 C 693.641 190.099, 688.334 183.244, 675.546 170.429 C 653.832 148.671, 629.529 135.420, 598.923 128.652 C 554.912 118.919, 507.734 125.335, 473 145.776 C 461.312 152.655, 453.309 159.012, 442.919 169.671 C 432.674 180.180, 427.807 186.394, 421.169 197.437 L 417 204.374 417 104.687 L 417 5 366.500 5 L 316 5 316 95.500 L 316 186 220.500 186 L 125 186 125 95.500 L 125 5 74.500 5 L 24 5 24 248 M 545.972 196.910 C 515.184 201.250, 495.784 224.601, 488.479 266.109 C 487.667 270.724, 487.002 275.063, 487.001 275.750 C 487 276.738, 501.889 277, 558.116 277 L 629.233 277 628.530 270.250 C 626.982 255.388, 623.782 243.647, 618.241 232.500 C 613.142 222.243, 600.355 209.880, 589 204.232 C 584.325 201.907, 577.800 199.319, 574.500 198.482 C 567.150 196.618, 553.413 195.861, 545.972 196.910 M 1407.531 197.047 C 1376.609 201.893, 1357.766 224.703, 1350.479 266.109 C 1349.667 270.724, 1349.002 275.063, 1349.001 275.750 C 1349 276.738, 1363.866 277, 1420 277 L 1491 277 1490.996 274.250 C 1490.989 269.324, 1488.104 253.549, 1485.911 246.442 C 1481.950 233.607, 1477.495 226.224, 1468.131 216.980 C 1458.679 207.650, 1447.983 201.395, 1436.500 198.482 C 1428.792 196.527, 1415.159 195.852, 1407.531 197.047 M 844.161 201.008 C 822.685 204.025, 805.896 215.882, 797.124 234.226 C 785.688 258.142, 780.335 288.490, 781.291 324 C 781.823 343.780, 783.298 355.146, 787.108 368.830 C 795.487 398.920, 812.999 419.799, 836 427.123 C 845.064 430.009, 862.056 430.711, 872 428.612 C 897.360 423.256, 911.762 405.505, 922.592 366.250 C 922.860 365.281, 930.594 365, 956.969 365 L 991 365 991 315.513 L 991 266.026 956.848 265.763 L 922.696 265.500 920.437 257 C 915.206 237.319, 909.200 225.247, 900 215.923 C 889.802 205.588, 878.836 201.318, 860.500 200.541 C 855 200.308, 847.648 200.518, 844.161 201.008 M 485.696 345.750 C 488.032 382.989, 493.021 398.838, 506.799 412.784 C 521.990 428.161, 540.381 434.885, 563.977 433.689 C 577.919 432.983, 585.928 431.070, 596.500 425.922 C 610.363 419.171, 621.129 408.640, 627.288 395.806 L 630.500 389.113 662.875 389.056 L 695.250 389 694.649 386.250 C 691.144 370.210, 689.854 362.864, 688.895 353.500 C 688.275 347.450, 687.609 341.938, 687.415 341.250 C 687.136 340.261, 666.035 340, 586.199 340 L 485.335 340 485.696 345.750 M 63.061 563.029 C 26.948 568.029, 4 596.188, 4 635.500 C 4 663.644, 16.133 687.067, 37.035 699.276 C 49.735 706.695, 66.687 709.930, 83.169 708.081 C 98.514 706.360, 112.999 702.006, 113.001 699.114 C 113.007 692.643, 110.495 676, 109.512 676 C 108.873 676, 105.209 677.069, 101.369 678.375 C 84.894 683.978, 66.204 684.571, 55.880 679.817 C 40.590 672.777, 33 658.075, 33 635.500 C 33 612.925, 40.590 598.223, 55.880 591.183 C 66.204 586.429, 84.894 587.022, 101.369 592.625 C 105.209 593.931, 108.880 595, 109.527 595 C 110.716 595, 113.767 571.434, 112.715 570.381 C 111.643 569.309, 97.892 565.070, 92.324 564.095 C 83.347 562.522, 70.180 562.043, 63.061 563.029 M 183.061 563.039 C 146.995 567.977, 124 596.189, 124 635.500 C 124 669.195, 141.876 696.338, 169.774 705.001 C 200.086 714.415, 231.838 704.903, 248.623 681.380 C 257.789 668.535, 262.077 653.913, 262.077 635.500 C 262.077 612.014, 254.410 592.778, 239.767 579.527 C 225.555 566.666, 203.468 560.244, 183.061 563.039 M 1144.061 563.039 C 1107.995 567.977, 1085 596.189, 1085 635.500 C 1085 669.195, 1102.876 696.338, 1130.774 705.001 C 1161.086 714.415, 1192.838 704.903, 1209.623 681.380 C 1218.789 668.535, 1223.077 653.913, 1223.077 635.500 C 1223.077 612.014, 1215.410 592.778, 1200.767 579.527 C 1186.555 566.666, 1164.468 560.244, 1144.061 563.039 M 295.534 567.250 C 295.256 568.487, 290.966 599.200, 286 635.500 C 281.034 671.800, 276.744 702.513, 276.466 703.750 L 275.962 706 289.981 706 C 297.691 706, 303.985 705.663, 303.967 705.250 C 303.948 704.837, 306.519 684.106, 309.679 659.180 C 314.361 622.242, 315.651 614.169, 316.648 615.534 C 317.322 616.455, 325.151 630.215, 334.046 646.113 C 342.941 662.010, 350.584 675.243, 351.030 675.518 C 351.475 675.794, 359.628 661.980, 369.147 644.821 C 385.824 614.759, 386.481 613.749, 387.194 617.062 C 387.601 618.953, 390.216 638.725, 393.004 661 C 395.792 683.275, 398.290 702.513, 398.556 703.750 C 399.027 705.948, 399.348 706, 412.519 706 C 419.934 706, 425.998 705.663, 425.995 705.250 C 425.993 704.837, 421.718 673.691, 416.495 636.037 C 411.273 598.382, 407 566.979, 407 566.254 C 407 565.224, 404.573 564.997, 395.937 565.217 L 384.874 565.500 368.189 596.771 C 355.579 620.404, 351.259 627.697, 350.502 626.630 C 349.951 625.854, 342.300 611.684, 333.500 595.141 L 317.500 565.063 306.769 565.032 C 296.445 565.001, 296.019 565.085, 295.534 567.250 M 449 635.500 L 449 706 462 706 L 475 706 475 683.122 L 475 660.244 493.250 659.721 C 512.102 659.181, 516.261 658.430, 525.119 653.967 C 535.436 648.767, 541.919 641.053, 546.098 629 C 549.059 620.460, 549.400 600.602, 546.735 591.876 C 544.193 583.552, 539.412 577.059, 533 573.220 C 521.936 566.596, 510.663 565.020, 474.250 565.008 L 449 565 449 635.500 M 566.238 612.720 C 566.595 658.030, 566.726 660.904, 568.783 668.314 C 574.225 687.927, 585.182 699.717, 603.500 705.670 C 610.442 707.925, 613.219 708.269, 624.500 708.269 C 635.781 708.269, 638.558 707.925, 645.500 705.670 C 663.818 699.717, 674.775 687.927, 680.217 668.314 C 682.274 660.904, 682.405 658.029, 682.762 612.750 L 683.138 565 670.192 565 L 657.246 565 656.737 607.750 C 656.418 634.486, 655.787 652.677, 655.052 656.312 C 652.671 668.079, 647.440 676.176, 639.595 680.238 C 634.691 682.777, 620.720 683.816, 614.401 682.110 C 605.924 679.823, 599.488 673.388, 595.757 663.467 C 593.581 657.683, 593.497 656.090, 593.006 611.500 L 592.500 565.500 579.181 565.220 L 565.862 564.941 566.238 612.720 M 699 578 L 699 591 718.492 591 L 737.984 591 738.242 648.250 L 738.500 705.500 751.750 705.779 L 765 706.058 765 648.529 L 765 591 784.500 591 L 804 591 804 578 L 804 565 751.500 565 L 699 565 699 578 M 846.605 565.829 C 846.014 566.786, 798.030 701.336, 797.241 704.250 C 796.806 705.854, 797.897 706, 810.301 706 L 823.835 706 825.431 701.750 C 826.309 699.413, 828.998 691.875, 831.407 685 L 835.786 672.500 859 672.500 L 882.214 672.500 886.593 685 C 889.002 691.875, 891.691 699.413, 892.569 701.750 L 894.165 706 907.691 706 L 921.217 706 920.606 703.750 C 920.270 702.513, 909.082 670.900, 895.745 633.500 L 871.495 565.500 859.325 565.220 C 852.632 565.066, 846.908 565.340, 846.605 565.829 M 914 578 L 914 591 933.500 591 L 953 591 953 648.529 L 953 706.058 966.250 705.779 L 979.500 705.500 979.758 648.250 L 980.016 591 999.508 591 L 1019 591 1019 578 L 1019 565 966.500 565 L 914 565 914 578 M 1037 635.500 L 1037 706 1050 706 L 1063 706 1063 635.500 L 1063 565 1050 565 L 1037 565 1037 635.500 M 1245 635.529 L 1245 706.058 1258.250 705.779 L 1271.500 705.500 1271.760 658.517 L 1272.020 611.533 1303.536 658.800 L 1335.051 706.067 1345.776 705.784 L 1356.500 705.500 1356.500 635.500 L 1356.500 565.500 1343.250 565.221 L 1330 564.942 1330 609.665 L 1330 654.388 1300.389 609.694 L 1270.777 565 1257.889 565 L 1245 565 1245 635.529 M 1421.595 565.847 C 1421.029 566.762, 1373.039 701.354, 1372.246 704.250 C 1371.807 705.854, 1372.895 706, 1385.301 706 L 1398.835 706 1400.431 701.750 C 1401.309 699.413, 1403.998 691.875, 1406.407 685 L 1410.786 672.500 1434.008 672.500 L 1457.229 672.500 1461.617 685 C 1464.031 691.875, 1466.716 699.413, 1467.585 701.750 L 1469.165 706 1482.656 706 C 1493.968 706, 1496.094 705.764, 1495.823 704.539 C 1495.645 703.736, 1484.475 672.019, 1471 634.057 L 1446.500 565.036 1434.309 565.018 C 1427.604 565.008, 1421.882 565.381, 1421.595 565.847 M 1512 635.511 L 1512 706.022 1553.750 705.761 L 1595.500 705.500 1595.500 693 L 1595.500 680.500 1566.750 680.235 L 1538 679.969 1538 622.485 L 1538 565 1525 565 L 1512 565 1512 635.511 M 475 610.858 L 475 635 488.451 635 C 504.804 635, 511.005 633.812, 515.568 629.806 C 523.753 622.620, 524.411 600.540, 516.658 593.241 C 511.916 588.777, 507.991 587.872, 490.750 587.268 L 475 586.716 475 610.858 M 180.286 589.397 C 162.180 595.288, 153 610.798, 153 635.500 C 153 658.059, 160.535 672.670, 175.880 679.865 C 180.933 682.234, 182.663 682.500, 193.021 682.500 C 204.025 682.500, 204.842 682.352, 211.218 679.213 C 225.954 671.959, 233.412 657.269, 233.412 635.500 C 233.412 613.753, 225.951 599.040, 211.255 591.805 C 205.273 588.860, 203.620 588.511, 194.558 588.281 C 188.087 588.117, 182.997 588.514, 180.286 589.397 M 1141.286 589.397 C 1123.180 595.288, 1114 610.798, 1114 635.500 C 1114 658.059, 1121.535 672.670, 1136.880 679.865 C 1141.933 682.234, 1143.663 682.500, 1154.021 682.500 C 1165.025 682.500, 1165.842 682.352, 1172.218 679.213 C 1186.954 671.959, 1194.412 657.269, 1194.412 635.500 C 1194.412 613.753, 1186.951 599.040, 1172.255 591.805 C 1166.273 588.860, 1164.620 588.511, 1155.558 588.281 C 1149.087 588.117, 1143.997 588.514, 1141.286 589.397 M 851.992 626.653 C 848.421 636.866, 845.350 645.622, 845.167 646.111 C 844.982 646.604, 851.162 647, 859.024 647 C 869.964 647, 873.105 646.714, 872.736 645.750 C 872.473 645.063, 869.454 636.625, 866.027 627 C 862.600 617.375, 859.501 609.181, 859.140 608.792 C 858.779 608.402, 855.562 616.440, 851.992 626.653 M 1427 626.674 C 1423.425 636.883, 1420.350 645.633, 1420.167 646.118 C 1419.983 646.603, 1426.219 647, 1434.024 647 C 1444.964 647, 1448.105 646.714, 1447.736 645.750 C 1447.473 645.063, 1444.454 636.625, 1441.027 627 C 1437.600 617.375, 1434.505 609.188, 1434.148 608.806 C 1433.792 608.424, 1430.575 616.465, 1427 626.674 M 1299.763 806.967 C 1266.883 812.958, 1245.428 838.275, 1243.320 873.574 C 1242.315 890.412, 1245.806 906.849, 1253.142 919.810 C 1254.914 922.939, 1259.769 928.917, 1263.931 933.094 C 1276.882 946.089, 1291.974 951.947, 1312.590 951.983 C 1345.952 952.040, 1370.463 933.063, 1379.087 900.500 C 1382.046 889.325, 1382.083 868.797, 1379.163 857.825 C 1375.587 844.391, 1370.557 835.564, 1361 825.951 C 1351.560 816.457, 1344.830 812.384, 1332.993 809 C 1324.617 806.605, 1307.498 805.558, 1299.763 806.967 M 23 879.500 L 23 950 35.990 950 L 48.981 950 49.240 902.370 L 49.500 854.740 81.251 902.370 L 113.002 950 123.501 950 L 134 950 134 879.500 L 134 809 121 809 L 108 809 108 853.735 L 108 898.470 78.393 853.735 L 48.787 809 35.893 809 L 23 809 23 879.500 M 163 854.542 C 163 906.001, 163.377 909.758, 169.939 923.620 C 176.764 938.038, 188.188 946.903, 204.667 950.569 C 215.170 952.906, 234.865 952.123, 243.723 949.017 C 261.711 942.709, 272.797 929.454, 277.608 908.500 C 279.245 901.375, 279.449 895.524, 279.473 855 L 279.500 809.500 266.314 809.221 L 253.129 808.943 252.776 854.221 C 252.438 897.554, 252.329 899.780, 250.247 906.005 C 245.719 919.543, 237.590 925.877, 223.593 926.776 C 206.367 927.881, 195.812 920.141, 191.170 903 C 189.990 898.643, 189.594 888.305, 189.267 853.250 L 188.853 809 175.927 809 L 163 809 163 854.542 M 318.534 812.250 C 317.208 819.999, 300 945.887, 300 947.839 C 300 949.946, 300.335 950, 313.372 950 L 326.744 950 327.304 946.250 C 327.611 944.188, 330.216 923.825, 333.093 901 C 335.969 878.175, 338.587 859.193, 338.911 858.817 C 339.235 858.441, 347.335 872.117, 356.911 889.207 C 370.832 914.052, 374.540 919.979, 375.411 918.777 C 376.010 917.949, 383.915 903.903, 392.977 887.562 C 405.235 865.462, 409.635 858.319, 410.159 859.676 C 410.546 860.679, 413.170 879.950, 415.989 902.500 C 418.808 925.050, 421.364 944.962, 421.669 946.750 L 422.223 950 435.611 950 C 447.237 950, 449 949.789, 449 948.394 C 449 947.511, 444.725 915.976, 439.500 878.317 C 434.275 840.658, 430 809.655, 430 809.423 C 430 809.190, 425.084 809, 419.076 809 L 408.151 809 391.422 840.513 L 374.693 872.025 373.035 869.263 C 372.122 867.743, 364.469 853.563, 356.027 837.750 L 340.677 809 329.884 809 L 319.091 809 318.534 812.250 M 472 879.500 L 472 950 500.250 949.969 C 515.788 949.952, 531.875 949.501, 536 948.966 C 556.704 946.283, 570.135 936.663, 574.595 921.323 C 576.711 914.043, 576.690 901.595, 574.552 895.155 C 572.386 888.636, 565.258 880.664, 558.608 877.324 C 555.798 875.914, 553.308 874.584, 553.073 874.369 C 552.838 874.155, 553.825 872.746, 555.266 871.240 C 564.416 861.674, 566.601 839.931, 559.784 826.281 C 557.082 820.872, 553.274 817.496, 546.215 814.251 C 537.164 810.090, 527.908 809.073, 498.750 809.035 L 472 809 472 879.500 M 597 879.500 L 597 950 643 950 L 689 950 689 937 L 689 924 656.500 924 L 624 924 624 906.500 L 624 889 648.500 889 L 673 889 673 876 L 673 863 648.500 863 L 624 863 624 848.500 L 624 834 655.500 834 L 687 834 687 821.500 L 687 809 642 809 L 597 809 597 879.500 M 711 879.500 L 711 950 724 950 L 737 950 737 924 L 737 898 749.750 898.005 L 762.500 898.011 776.996 924.005 L 791.492 950 804.746 950 C 812.036 950, 818 949.609, 818 949.132 C 818 948.655, 811.060 935.320, 802.577 919.499 L 787.155 890.735 792.827 886.431 C 802.817 878.854, 807.977 870.152, 810.087 857.330 C 813.256 838.069, 805.120 820.806, 789.647 813.962 C 780.097 809.738, 773.226 809.036, 741.250 809.017 L 711 809 711 879.500 M 868 821.500 L 868 834 888 834 L 908 834 908 892 L 908 950 921 950 L 934 950 934 892 L 934 834 954 834 L 974 834 974 821.500 L 974 809 921 809 L 868 809 868 821.500 M 992 879.500 L 992 950 1005 950 L 1018 950 1018 919.500 L 1018 889 1050.500 889 L 1083 889 1083 919.529 L 1083 950.058 1096.250 949.779 L 1109.500 949.500 1109.500 879.500 L 1109.500 809.500 1096.250 809.221 L 1083 808.942 1083 835.971 L 1083 863 1050.500 863 L 1018 863 1018 836 L 1018 809 1005 809 L 992 809 992 879.500 M 1140 879.500 L 1140 950 1186 950 L 1232 950 1232 937 L 1232 924 1199.500 924 L 1167 924 1167 906.500 L 1167 889 1191.530 889 L 1216.060 889 1215.780 876.250 L 1215.500 863.500 1191.250 863.232 L 1167 862.964 1167 848.482 L 1167 834 1198.500 834 L 1230 834 1230 821.500 L 1230 809 1185 809 L 1140 809 1140 879.500 M 1403.243 879.250 L 1403.500 949.500 1416.500 949.500 L 1429.500 949.500 1429.767 923.750 L 1430.034 898 1442.767 898.031 L 1455.500 898.062 1469.879 924.031 L 1484.257 950 1497.736 950 C 1510.161 950, 1511.162 949.863, 1510.543 948.250 C 1510.173 947.288, 1503.104 933.911, 1494.833 918.524 L 1479.794 890.549 1482.147 889.038 C 1483.441 888.207, 1487.035 885.141, 1490.132 882.224 C 1500.343 872.609, 1504.625 859.428, 1502.871 843.011 C 1500.999 825.487, 1490.408 814.523, 1471.483 810.514 C 1466.198 809.394, 1457.020 809.031, 1433.743 809.017 L 1402.986 809 1403.243 879.250 M 1510.386 810.564 C 1510.717 811.425, 1521.565 829.157, 1534.493 849.968 L 1558 887.808 1558 918.904 L 1558 950 1571 950 L 1584 950 1584 918.739 L 1584 887.478 1607.611 849.489 C 1620.598 828.595, 1631.446 810.938, 1631.718 810.250 C 1632.101 809.286, 1629.046 809.004, 1618.357 809.018 L 1604.500 809.035 1588 835.987 C 1578.925 850.810, 1571.263 862.952, 1570.972 862.969 C 1570.682 862.986, 1563.032 850.869, 1553.972 836.042 L 1537.500 809.085 1523.643 809.042 C 1511.472 809.005, 1509.859 809.190, 1510.386 810.564 M 498 847.864 L 498 865 512.750 864.998 C 529.441 864.997, 532.762 864.041, 536.730 858.102 C 539.612 853.788, 539.871 844.250, 537.248 839 C 534.315 833.128, 530.020 831.756, 512.838 831.205 L 498 830.728 498 847.864 M 737 851.881 L 737 873 749.250 872.984 C 762.488 872.967, 771.677 871.349, 775.874 868.294 C 780.151 865.182, 783 858.466, 783 851.500 C 783 842.737, 780.024 837.255, 773.517 834.032 C 768.999 831.794, 767.065 831.526, 752.767 831.162 L 737 830.761 737 851.881 M 1305.255 832.142 C 1297.654 833.037, 1288.400 837.708, 1283.517 843.113 C 1275.864 851.584, 1272.030 863.563, 1272.030 879 C 1272.030 901.105, 1280.161 916.653, 1295.390 923.666 C 1300.888 926.199, 1302.551 926.476, 1312 926.437 C 1324.172 926.387, 1330.962 924.292, 1337.731 918.498 C 1347.947 909.754, 1352.472 897.765, 1352.450 879.500 C 1352.434 866.939, 1350.997 859.858, 1346.771 851.530 C 1339.316 836.837, 1324.426 829.883, 1305.255 832.142 M 1430 852.004 L 1430 873.248 1444.750 872.723 C 1452.862 872.434, 1461.259 871.606, 1463.408 870.883 C 1472.284 867.896, 1476.710 859.931, 1475.707 848.756 C 1475.023 841.148, 1472.533 837.150, 1466.562 834.077 C 1462.092 831.777, 1460.361 831.534, 1445.842 831.164 L 1430 830.761 1430 852.004 M 498 906.500 L 498 927.191 516.280 926.845 C 533.579 926.519, 534.826 926.363, 539.530 923.941 C 546.326 920.442, 548.962 915.694, 548.984 906.907 C 549.006 897.843, 546.143 892.465, 539.462 889.025 C 534.841 886.645, 533.511 886.480, 516.280 886.155 L 498 885.809 498 906.500" stroke="none" fill="#bc0434" fill-rule="evenodd"/></svg>